<?xml version="1.0" standalone="no"?>
<svg xmlns:xlink="http://www.w3.org/1999/xlink" id="wave" style="transform:rotate(0deg); transition: 0.3s" viewBox="0 0 1440 270" version="1.1" xmlns="http://www.w3.org/2000/svg"><defs><linearGradient id="sw-gradient-0" x1="0" x2="0" y1="1" y2="0"><stop stop-color="rgba(46, 85, 255, 1)" offset="0%"/><stop stop-color="rgba(46, 85, 255, 1)" offset="100%"/></linearGradient></defs><path style="transform:translate(0, 0px); opacity:1" fill="url(#sw-gradient-0)" d="M0,0L24,22.5C48,45,96,90,144,90C192,90,240,45,288,54C336,63,384,126,432,135C480,144,528,99,576,94.5C624,90,672,126,720,126C768,126,816,90,864,90C912,90,960,126,1008,117C1056,108,1104,54,1152,58.5C1200,63,1248,126,1296,139.5C1344,153,1392,117,1440,99C1488,81,1536,81,1584,72C1632,63,1680,45,1728,49.5C1776,54,1824,81,1872,85.5C1920,90,1968,72,2016,76.5C2064,81,2112,108,2160,103.5C2208,99,2256,63,2304,63C2352,63,2400,99,2448,94.5C2496,90,2544,45,2592,63C2640,81,2688,162,2736,202.5C2784,243,2832,243,2880,243C2928,243,2976,243,3024,216C3072,189,3120,135,3168,94.5C3216,54,3264,27,3312,45C3360,63,3408,126,3432,157.5L3456,189L3456,270L3432,270C3408,270,3360,270,3312,270C3264,270,3216,270,3168,270C3120,270,3072,270,3024,270C2976,270,2928,270,2880,270C2832,270,2784,270,2736,270C2688,270,2640,270,2592,270C2544,270,2496,270,2448,270C2400,270,2352,270,2304,270C2256,270,2208,270,2160,270C2112,270,2064,270,2016,270C1968,270,1920,270,1872,270C1824,270,1776,270,1728,270C1680,270,1632,270,1584,270C1536,270,1488,270,1440,270C1392,270,1344,270,1296,270C1248,270,1200,270,1152,270C1104,270,1056,270,1008,270C960,270,912,270,864,270C816,270,768,270,720,270C672,270,624,270,576,270C528,270,480,270,432,270C384,270,336,270,288,270C240,270,192,270,144,270C96,270,48,270,24,270L0,270Z"/></svg>